<svg width="38" height="70" viewBox="0 0 38 70" fill="none" xmlns="http://www.w3.org/2000/svg">
<g id="Group 453">
<ellipse id="Ellipse 4" cx="2.41853" cy="2.41853" rx="2.41853" ry="2.41853" transform="matrix(0 1 1 0 0 0)" fill="white"/>
<ellipse id="Ellipse 5" cx="2.41853" cy="2.41853" rx="2.41853" ry="2.41853" transform="matrix(0 1 1 0 0 16.2908)" fill="white"/>
<ellipse id="Ellipse 3" cx="2.41853" cy="2.41853" rx="2.41853" ry="2.41853" transform="matrix(0 1 1 0 0 32.5814)" fill="white"/>
<ellipse id="Ellipse 5_2" cx="2.41853" cy="2.41853" rx="2.41853" ry="2.41853" transform="matrix(0 1 1 0 0 48.8722)" fill="white"/>
<ellipse id="Ellipse 3_2" cx="2.41853" cy="2.41853" rx="2.41853" ry="2.41853" transform="matrix(0 1 1 0 0 65.163)" fill="white"/>
<ellipse id="Ellipse 8" cx="2.41853" cy="2.41853" rx="2.41853" ry="2.41853" transform="matrix(0 1 1 0 16.2908 0)" fill="white"/>
<ellipse id="Ellipse 6" cx="2.41853" cy="2.41853" rx="2.41853" ry="2.41853" transform="matrix(0 1 1 0 16.2908 16.2908)" fill="white"/>
<ellipse id="Ellipse 7" cx="2.41853" cy="2.41853" rx="2.41853" ry="2.41853" transform="matrix(0 1 1 0 16.2908 32.5814)" fill="white"/>
<ellipse id="Ellipse 6_2" cx="2.41853" cy="2.41853" rx="2.41853" ry="2.41853" transform="matrix(0 1 1 0 16.2908 48.8722)" fill="white"/>
<ellipse id="Ellipse 7_2" cx="2.41853" cy="2.41853" rx="2.41853" ry="2.41853" transform="matrix(0 1 1 0 16.2908 65.163)" fill="white"/>
<ellipse id="Ellipse 4_2" cx="2.41853" cy="2.41853" rx="2.41853" ry="2.41853" transform="matrix(0 1 1 0 32.5814 0)" fill="white"/>
<ellipse id="Ellipse 5_3" cx="2.41853" cy="2.41853" rx="2.41853" ry="2.41853" transform="matrix(0 1 1 0 32.5814 16.2908)" fill="white"/>
<ellipse id="Ellipse 3_3" cx="2.41853" cy="2.41853" rx="2.41853" ry="2.41853" transform="matrix(0 1 1 0 32.5814 32.5814)" fill="white"/>
<ellipse id="Ellipse 5_4" cx="2.41853" cy="2.41853" rx="2.41853" ry="2.41853" transform="matrix(0 1 1 0 32.5814 48.8722)" fill="white"/>
<ellipse id="Ellipse 3_4" cx="2.41853" cy="2.41853" rx="2.41853" ry="2.41853" transform="matrix(0 1 1 0 32.5814 65.163)" fill="white"/>
</g>
</svg>
