<svg width="49" height="92" viewBox="0 0 49 92" fill="none" xmlns="http://www.w3.org/2000/svg">
<g id="Group 453">
<circle id="Ellipse 4" cx="3.16736" cy="3.16736" r="3.16736" transform="matrix(0 1 1 0 0 0)" fill="white"/>
<circle id="Ellipse 5" cx="3.16736" cy="3.16736" r="3.16736" transform="matrix(0 1 1 0 0 21.3347)" fill="white"/>
<circle id="Ellipse 3" cx="3.16736" cy="3.16736" r="3.16736" transform="matrix(0 1 1 0 0 42.6694)" fill="white"/>
<circle id="Ellipse 5_2" cx="3.16736" cy="3.16736" r="3.16736" transform="matrix(0 1 1 0 0 64.0042)" fill="white"/>
<circle id="Ellipse 3_2" cx="3.16736" cy="3.16736" r="3.16736" transform="matrix(0 1 1 0 0 85.3389)" fill="white"/>
<circle id="Ellipse 8" cx="3.16736" cy="3.16736" r="3.16736" transform="matrix(0 1 1 0 21.3347 0)" fill="white"/>
<circle id="Ellipse 6" cx="3.16736" cy="3.16736" r="3.16736" transform="matrix(0 1 1 0 21.3347 21.3347)" fill="white"/>
<circle id="Ellipse 7" cx="3.16736" cy="3.16736" r="3.16736" transform="matrix(0 1 1 0 21.3347 42.6694)" fill="white"/>
<circle id="Ellipse 6_2" cx="3.16736" cy="3.16736" r="3.16736" transform="matrix(0 1 1 0 21.3347 64.0042)" fill="white"/>
<circle id="Ellipse 7_2" cx="3.16736" cy="3.16736" r="3.16736" transform="matrix(0 1 1 0 21.3347 85.3389)" fill="white"/>
<circle id="Ellipse 4_2" cx="3.16736" cy="3.16736" r="3.16736" transform="matrix(0 1 1 0 42.6694 0)" fill="white"/>
<circle id="Ellipse 5_3" cx="3.16736" cy="3.16736" r="3.16736" transform="matrix(0 1 1 0 42.6694 21.3347)" fill="white"/>
<circle id="Ellipse 3_3" cx="3.16736" cy="3.16736" r="3.16736" transform="matrix(0 1 1 0 42.6694 42.6694)" fill="white"/>
<circle id="Ellipse 5_4" cx="3.16736" cy="3.16736" r="3.16736" transform="matrix(0 1 1 0 42.6694 64.0042)" fill="white"/>
<circle id="Ellipse 3_4" cx="3.16736" cy="3.16736" r="3.16736" transform="matrix(0 1 1 0 42.6694 85.3389)" fill="white"/>
</g>
</svg>
