<svg width="52" height="53" viewBox="0 0 52 53" fill="none" xmlns="http://www.w3.org/2000/svg">
<rect x="1.40735" y="0.5" width="50.0002" height="51.0198" rx="25.0001" stroke="white"/>
<path d="M21.9316 16.3298C22.6825 16.5842 23.397 16.9359 24.0566 17.3758C24.9882 17.1377 25.9461 17.0181 26.9076 17.0198C27.9006 17.0198 28.8586 17.1438 29.7566 17.3748C30.4159 16.9353 31.13 16.584 31.8806 16.3298C32.5776 16.0928 33.5706 15.7088 34.1606 16.3618C34.5606 16.8058 34.6606 17.5498 34.7316 18.1178C34.8116 18.7518 34.8306 19.5778 34.6206 20.3978C35.4236 21.4348 35.9076 22.6718 35.9076 24.0198C35.9076 26.0618 34.8016 27.8348 33.1646 29.0628C32.3768 29.6464 31.503 30.1038 30.5746 30.4188C30.7886 30.9088 30.9076 31.4508 30.9076 32.0198V35.0198C30.9076 35.2851 30.8022 35.5394 30.6147 35.7269C30.4271 35.9145 30.1728 36.0198 29.9076 36.0198H23.9076C23.6424 36.0198 23.388 35.9145 23.2005 35.7269C23.0129 35.5394 22.9076 35.2851 22.9076 35.0198V34.0288C21.9526 34.1458 21.1516 34.0418 20.4706 33.7528C19.7586 33.4508 19.2626 32.9828 18.8896 32.5348C18.5356 32.1108 18.1496 31.1548 17.5916 30.9688C17.467 30.9273 17.3517 30.8617 17.2525 30.7757C17.1532 30.6896 17.0719 30.5849 17.0131 30.4674C16.8944 30.2302 16.8748 29.9555 16.9586 29.7038C17.0424 29.4521 17.2227 29.2441 17.46 29.1253C17.6972 29.0066 17.9719 28.987 18.2236 29.0708C18.8896 29.2928 19.3236 29.7728 19.6206 30.1588C20.1006 30.7788 20.4906 31.5888 21.2506 31.9118C21.5636 32.0448 22.0226 32.1318 22.7406 32.0338L22.9076 31.9998C22.9095 31.4556 23.0228 30.9176 23.2406 30.4188C22.3122 30.1039 21.4384 29.6464 20.6506 29.0628C19.0136 27.8348 17.9076 26.0628 17.9076 24.0198C17.9076 22.6738 18.3906 21.4378 19.1916 20.4018C18.9816 19.5818 18.9996 18.7538 19.0796 18.1188L19.0846 18.0808C19.1576 17.4988 19.2426 16.8138 19.6506 16.3618C20.2406 15.7088 21.2346 16.0938 21.9306 16.3308L21.9316 16.3298Z" fill="white"/>
</svg>
