<svg width="53" height="52" viewBox="0 0 53 52" fill="none" xmlns="http://www.w3.org/2000/svg">
<rect x="1.46753" y="0.947388" width="50.125" height="50.125" rx="25.0625" stroke="white"/>
<path d="M26.53 21.6974C25.6771 21.6974 24.8433 21.9503 24.1341 22.4242C23.4249 22.898 22.8722 23.5716 22.5458 24.3596C22.2194 25.1476 22.134 26.0147 22.3004 26.8512C22.4668 27.6878 22.8775 28.4562 23.4806 29.0593C24.0837 29.6624 24.8522 30.0731 25.6887 30.2395C26.5252 30.4059 27.3923 30.3205 28.1804 29.9941C28.9684 29.6677 29.6419 29.115 30.1157 28.4058C30.5896 27.6966 30.8425 26.8628 30.8425 26.0099C30.841 24.8666 30.3862 23.7706 29.5778 22.9621C28.7694 22.1537 27.6733 21.6989 26.53 21.6974ZM26.53 29.1974C25.8996 29.1974 25.2833 29.0104 24.7591 28.6602C24.235 28.31 23.8264 27.8121 23.5852 27.2297C23.3439 26.6473 23.2808 26.0064 23.4038 25.388C23.5268 24.7697 23.8303 24.2018 24.2761 23.756C24.7219 23.3102 25.2899 23.0066 25.9082 22.8836C26.5265 22.7606 27.1674 22.8238 27.7498 23.065C28.3323 23.3063 28.8301 23.7148 29.1803 24.239C29.5306 24.7632 29.7175 25.3795 29.7175 26.0099C29.7175 26.8553 29.3817 27.666 28.7839 28.2638C28.1862 28.8616 27.3754 29.1974 26.53 29.1974ZM31.03 16.4474H22.03C20.6878 16.4489 19.401 16.9827 18.4519 17.9318C17.5029 18.8809 16.969 20.1677 16.9675 21.5099V30.5099C16.969 31.8521 17.5029 33.1389 18.4519 34.088C19.401 35.0371 20.6878 35.5709 22.03 35.5724H31.03C32.3722 35.5709 33.659 35.0371 34.6081 34.088C35.5572 33.1389 36.091 31.8521 36.0925 30.5099V21.5099C36.091 20.1677 35.5572 18.8809 34.6081 17.9318C33.659 16.9827 32.3722 16.4489 31.03 16.4474ZM34.9675 30.5099C34.9675 31.5542 34.5527 32.5557 33.8143 33.2941C33.0758 34.0325 32.0743 34.4474 31.03 34.4474H22.03C20.9857 34.4474 19.9842 34.0325 19.2458 33.2941C18.5074 32.5557 18.0925 31.5542 18.0925 30.5099V21.5099C18.0925 20.4656 18.5074 19.4641 19.2458 18.7257C19.9842 17.9872 20.9857 17.5724 22.03 17.5724H31.03C32.0743 17.5724 33.0758 17.9872 33.8143 18.7257C34.5527 19.4641 34.9675 20.4656 34.9675 21.5099V30.5099ZM32.3425 21.1349C32.3425 21.3203 32.2875 21.5016 32.1845 21.6557C32.0815 21.8099 31.9351 21.9301 31.7638 22.001C31.5925 22.072 31.404 22.0905 31.2221 22.0544C31.0403 22.0182 30.8732 21.9289 30.7421 21.7978C30.611 21.6667 30.5217 21.4996 30.4855 21.3178C30.4494 21.1359 30.4679 20.9474 30.5389 20.7761C30.6098 20.6048 30.73 20.4584 30.8842 20.3554C31.0384 20.2524 31.2196 20.1974 31.405 20.1974C31.6537 20.1974 31.8921 20.2962 32.0679 20.472C32.2438 20.6478 32.3425 20.8862 32.3425 21.1349Z" fill="white"/>
</svg>
