<svg width="52" height="51" viewBox="0 0 52 51" fill="none" xmlns="http://www.w3.org/2000/svg">
<rect x="1.40759" y="0.509399" width="50.06" height="49.001" rx="24.5005" stroke="white"/>
<path d="M20.9076 18.0104C20.9073 18.5408 20.6964 19.0494 20.3211 19.4243C19.9458 19.7992 19.437 20.0097 18.9066 20.0094C18.3762 20.0091 17.8676 19.7982 17.4927 19.4229C17.1178 19.0476 16.9073 18.5388 16.9076 18.0084C16.9079 17.478 17.1188 16.9694 17.4941 16.5945C17.8693 16.2196 18.3782 16.0091 18.9086 16.0094C19.439 16.0097 19.9476 16.2206 20.3225 16.5959C20.6974 16.9712 20.9079 17.48 20.9076 18.0104ZM20.9676 21.4904H16.9676V34.0104H20.9676V21.4904ZM27.2876 21.4904H23.3076V34.0104H27.2476V27.4404C27.2476 23.7804 32.0176 23.4404 32.0176 27.4404V34.0104H35.9676V26.0804C35.9676 19.9104 28.9076 20.1404 27.2476 23.1704L27.2876 21.4904Z" fill="white"/>
</svg>
